<svg aria-hidden="true" style="position: absolute; width: 0; height: 0; overflow: hidden;" version="1.1" xmlns="http://www.w3.org/2000/svg" xmlns:xlink="http://www.w3.org/1999/xlink">
<defs>
<symbol id="icon-shopping-cart" viewBox="0 0 32 32">
<title>shopping-cart</title>
<path d="M9.606 21.070h17.632c1.999 0 3.63-1.631 3.63-3.63v-7.497c0-0.013 0-0.026-0.007-0.039 0-0.013-0.007-0.033-0.007-0.046s-0.007-0.026-0.007-0.039c-0.007-0.013-0.007-0.026-0.013-0.046-0.007-0.013-0.007-0.026-0.013-0.039s-0.007-0.026-0.013-0.039c-0.007-0.013-0.013-0.026-0.020-0.046-0.007-0.013-0.013-0.026-0.020-0.033l-0.020-0.039c-0.007-0.013-0.013-0.020-0.020-0.033s-0.020-0.026-0.026-0.039c-0.007-0.013-0.013-0.020-0.026-0.033-0.007-0.013-0.020-0.020-0.026-0.033s-0.020-0.020-0.026-0.033-0.020-0.020-0.026-0.026l-0.033-0.033c-0.013-0.007-0.020-0.020-0.033-0.026s-0.026-0.020-0.039-0.026c-0.013-0.007-0.020-0.013-0.033-0.020s-0.026-0.013-0.039-0.026l-0.118-0.059c-0.013-0.007-0.026-0.007-0.039-0.013s-0.033-0.013-0.046-0.013-0.026-0.007-0.033-0.007c-0.020-0.007-0.033-0.007-0.053-0.007-0.007 0-0.013-0.007-0.026-0.007l-22.348-3.084v-3.117c0-0.033 0-0.066-0.007-0.092 0-0.007 0-0.013-0.007-0.026 0-0.020-0.007-0.039-0.007-0.059-0.007-0.020-0.007-0.033-0.013-0.053 0-0.013-0.007-0.020-0.007-0.033l-0.020-0.059c0-0.007-0.007-0.020-0.007-0.026-0.007-0.020-0.013-0.033-0.026-0.053-0.007-0.007-0.007-0.020-0.013-0.026-0.007-0.013-0.013-0.026-0.026-0.039-0.007-0.013-0.013-0.020-0.020-0.033s-0.013-0.020-0.020-0.033-0.020-0.026-0.026-0.039l-0.079-0.079c-0.013-0.013-0.026-0.026-0.046-0.039-0.007-0.007-0.020-0.013-0.026-0.020-0.013-0.013-0.026-0.020-0.039-0.033-0.020-0.013-0.039-0.026-0.053-0.033-0.007-0.007-0.013-0.007-0.020-0.013-0.026-0.013-0.059-0.026-0.085-0.039l-4.847-2.039c-0.454-0.191-0.973 0.020-1.164 0.474s0.020 0.973 0.474 1.164l4.301 1.815v19.454c0 1.841 1.381 3.367 3.163 3.597-0.322 0.539-0.513 1.171-0.513 1.841 0 1.98 1.611 3.584 3.584 3.584s3.584-1.611 3.584-3.584c0-0.658-0.178-1.282-0.493-1.809h7.984c-0.316 0.533-0.493 1.151-0.493 1.809 0 1.98 1.611 3.584 3.584 3.584s3.584-1.611 3.584-3.584-1.611-3.584-3.584-3.584h-16.77c-1.026 0-1.855-0.835-1.855-1.855v-2.407c0.539 0.316 1.177 0.5 1.855 0.5zM14.026 28.409c0 1-0.816 1.809-1.809 1.809s-1.809-0.816-1.809-1.809 0.816-1.809 1.809-1.809 1.809 0.809 1.809 1.809zM28.192 28.409c0 1-0.816 1.809-1.809 1.809s-1.809-0.816-1.809-1.809 0.816-1.809 1.809-1.809 1.809 0.809 1.809 1.809zM27.238 19.294h-17.632c-1.026 0-1.855-0.835-1.855-1.855v-9.595l21.341 2.94v6.649c0 1.033-0.835 1.861-1.855 1.861z"></path>
</symbol>
<symbol id="icon-magnifying-glass" viewBox="0 0 32 32">
<title>magnifying-glass</title>
<path d="M21.371 3.662c-4.882-4.882-12.828-4.882-17.709 0-4.881 4.883-4.881 12.828 0 17.71 4.347 4.346 11.118 4.812 15.997 1.418 0.103 0.486 0.338 0.949 0.715 1.327l7.11 7.11c0.479 0.479 1.14 0.776 1.871 0.776s1.392-0.296 1.87-0.775l0-0c0.48-0.478 0.776-1.14 0.776-1.871s-0.297-1.392-0.776-1.87l-7.11-7.112c-0.353-0.351-0.804-0.602-1.309-0.71l-0.017-0.003c3.396-4.88 2.93-11.65-1.418-15.999zM19.126 19.128c-3.645 3.645-9.576 3.645-13.22 0-3.643-3.645-3.643-9.575 0-13.22 3.644-3.644 9.575-3.644 13.22 0 3.645 3.645 3.645 9.575 0 13.22z"></path>
</symbol>
</defs>
</svg>
