<svg aria-hidden="true" style="position: absolute; width: 0; height: 0; overflow: hidden;" version="1.1" xmlns="http://www.w3.org/2000/svg" xmlns:xlink="http://www.w3.org/1999/xlink">
<defs>
<symbol id="icon-twitter" viewBox="0 0 32 32">
<title>twitter</title>
<path d="M32 6.079c-1.098 0.5-2.371 0.864-3.706 1.028l-0.063 0.006c1.356-0.812 2.394-2.1 2.885-3.629-1.272 0.752-2.675 1.298-4.171 1.594-1.198-1.278-2.901-2.074-4.791-2.074-3.625 0-6.565 2.939-6.565 6.563 0 0.514 0.058 1.016 0.17 1.496-5.455-0.274-10.292-2.887-13.529-6.859-0.566 0.968-0.888 2.096-0.888 3.299 0 2.278 1.16 4.287 2.919 5.463-1.097-0.037-2.116-0.338-3.006-0.841l0.033 0.017v0.082c0 3.179 2.264 5.833 5.265 6.437-0.55 0.148-1.13 0.23-1.73 0.23-0.424 0-0.834-0.042-1.236-0.122 0.836 2.61 3.259 4.507 6.131 4.559-2.246 1.76-5.077 2.805-8.152 2.805-0.53 0-1.052-0.032-1.566-0.090 2.905 1.866 6.355 2.953 10.062 2.953 12.076 0 18.677-10.002 18.677-18.677l-0.022-0.85c1.29-0.92 2.405-2.076 3.283-3.391z"></path>
</symbol>
<symbol id="icon-pinterest" viewBox="0 0 32 32">
<title>pinterest</title>
<path d="M13.786 21.165c-0.84 4.405-1.867 8.629-4.907 10.835-0.938-6.659 1.378-11.659 2.454-16.968-1.834-3.087 0.22-9.3 4.089-7.769 4.759 1.883-4.122 11.477 1.84 12.675 6.225 1.251 8.766-10.801 4.906-14.72-5.577-5.659-16.234-0.129-14.924 7.973 0.319 1.981 2.365 2.582 0.818 5.315-3.569-0.791-4.635-3.606-4.498-7.36 0.221-6.143 5.52-10.444 10.835-11.039 6.722-0.753 13.031 2.467 13.902 8.791 0.981 7.137-3.034 14.867-10.222 14.311-1.948-0.151-2.766-1.116-4.293-2.044z"></path>
</symbol>
<symbol id="icon-instagram" viewBox="0 0 32 32">
<title>instagram</title>
<path d="M4.108 0h23.787c2.259 0 4.107 1.673 4.107 4.107v23.788c0 2.435-1.848 4.107-4.107 4.107h-23.787c-2.26 0-4.108-1.672-4.108-4.107v-23.788c0-2.435 1.848-4.107 4.108-4.107zM23.312 3.556c-0.795 0.002-1.438 0.646-1.44 1.441v3.449c0.002 0.795 0.646 1.438 1.44 1.441h3.617c0.795-0.002 1.438-0.646 1.441-1.441v-3.449c-0.002-0.795-0.646-1.439-1.441-1.441h-3.617zM28.385 13.534h-2.817c0.261 0.82 0.411 1.764 0.411 2.742 0 0.001 0 0.002 0 0.003v-0c0 5.323-4.454 9.638-9.948 9.638s-9.947-4.315-9.947-9.638c0-0.954 0.144-1.876 0.411-2.745h-2.939v13.518c0.002 0.702 0.571 1.27 1.272 1.272h22.285c0.702-0.002 1.27-0.57 1.272-1.272v-13.518h-0.001zM16.031 9.704c-3.549 0-6.427 2.788-6.427 6.228s2.878 6.228 6.427 6.228c3.55 0 6.428-2.788 6.428-6.228s-2.878-6.228-6.428-6.228z"></path>
</symbol>
<symbol id="icon-facebook" viewBox="0 0 32 32">
<title>facebook</title>
<path d="M11.761 6.197v4.406h-3.228v5.387h3.228v16.009h6.631v-16.009h4.449s0.417-2.583 0.619-5.408h-5.043v-3.684c0-0.551 0.723-1.291 1.437-1.291h3.613v-5.609h-4.912c-6.958-0-6.794 5.392-6.794 6.197z"></path>
</symbol>
</defs>
</svg>
