<svg aria-hidden="true" style="position: absolute; width: 0; height: 0; overflow: hidden;" version="1.1" xmlns="http://www.w3.org/2000/svg" xmlns:xlink="http://www.w3.org/1999/xlink">
<defs>
<symbol id="icon-icon-glass" viewBox="0 0 64 32">
<title>icon-glass</title>
<path d="M3.704 3.205c0.064 0.064 0.103 0.152 0.103 0.25 0 0.195-0.158 0.353-0.353 0.353-0.098 0-0.186-0.040-0.25-0.103l-1.034-1.034c-0.205 0.123-0.452 0.196-0.716 0.197h-0c-0.78 0-1.412-0.632-1.412-1.412s0.632-1.412 1.412-1.412c0.78 0 1.412 0.632 1.412 1.412v0c-0 0.264-0.073 0.511-0.2 0.722l0.004-0.006 1.034 1.034zM1.455 0.396c-0.585 0-1.059 0.474-1.059 1.059s0.474 1.059 1.059 1.059c0 0 0 0 0 0v0c0.585-0 1.059-0.474 1.059-1.059s-0.474-1.059-1.059-1.059c-0 0-0 0-0 0v0z"></path>
</symbol>
<symbol id="icon-icon-shopping" viewBox="0 0 64 32">
<title>icon-shopping</title>
<path fill="#95e1d3" d="M3.792 0.784h0l-0.529 1.176c-0.027 0.058-0.083 0.099-0.149 0.104l-0.001 0-1.525 0.102 0.088 0.252h1.66c0.195 0 0.353 0.158 0.353 0.353s-0.158 0.353-0.353 0.353c-0.195 0-0.353-0.158-0.353-0.353v0h-1.647c-0 0.195-0.158 0.353-0.353 0.353s-0.353-0.158-0.353-0.353 0.158-0.353 0.353-0.353h0.319l-0.679-1.941h-0.404c-0.097 0-0.176-0.079-0.176-0.176s0.079-0.176 0.176-0.176v0h0.529c0.077 0 0.142 0.050 0.166 0.118l0.001-0 0.103 0.294h2.613c0.097 0 0.176 0.079 0.176 0.176 0 0.026-0.006 0.051-0.016 0.073l0-0.001zM1.142 0.888l0.326 0.932 1.516-0.101 0.374-0.831h-2.216z"></path>
</symbol>
</defs>
</svg>
